<?xml version="1.0" standalone="no"?>
<!DOCTYPE svg PUBLIC "-//W3C//DTD SVG 20010904//EN"
 "http://www.w3.org/TR/2001/REC-SVG-20010904/DTD/svg10.dtd">
<svg version="1.0" xmlns="http://www.w3.org/2000/svg"
 width="700.000000pt" height="700.000000pt" viewBox="0 0 700.000000 700.000000"
 preserveAspectRatio="xMidYMid meet">
<metadata>
Created by potrace 1.11, written by Peter Selinger 2001-2013
</metadata>
<g transform="translate(0.000000,700.000000) scale(0.100000,-0.100000)"
fill="#000000" stroke="none">
<path d="M2669 6752 c-39 -20 -62 -41 -84 -77 l-30 -48 0 -281 0 -281 28 -48
c42 -71 94 -101 184 -105 l73 -4 0 -988 c0 -1073 1 -1052 -56 -1224 -28 -83
-38 -100 -1019 -1721 -263 -434 -490 -819 -505 -855 -42 -101 -54 -166 -54
-280 1 -82 6 -119 23 -170 79 -227 233 -376 449 -431 73 -18 128 -19 1812 -19
1121 0 1756 4 1791 10 125 23 263 102 349 198 56 63 133 211 149 287 6 28 9
104 7 170 -3 135 -29 233 -90 335 -18 30 -350 579 -737 1220 -388 641 -715
1190 -727 1220 -12 30 -32 91 -44 135 l-23 80 -3 1016 -3 1017 75 4 c96 4 148
37 189 118 l28 55 -3 271 -3 271 -30 48 c-22 36 -45 57 -84 77 l-53 28 -778 0
-778 0 -53 -28z m1271 -1992 l5 -925 27 -97 c43 -156 87 -251 208 -448 62
-102 148 -242 192 -312 l78 -128 -950 0 -950 0 187 308 c192 318 246 426 291
591 l27 96 2 910 c2 501 5 916 8 923 3 10 96 12 437 10 l433 -3 5 -925z m759
-2313 c57 -95 272 -450 477 -789 283 -467 378 -631 389 -674 53 -204 -42 -418
-224 -503 l-56 -26 -545 -7 c-300 -5 -1098 -7 -1775 -5 l-1230 2 -67 32 c-133
63 -224 197 -235 347 -12 153 -30 117 500 999 l479 797 1092 0 1091 -1 104
-172z"/>
<path d="M3343 4365 c-104 -45 -68 -208 47 -208 117 0 152 164 45 209 -42 17
-51 17 -92 -1z"/>
<path d="M3564 3820 c-36 -14 -64 -59 -64 -102 0 -32 7 -47 34 -74 28 -28 42
-34 76 -34 56 0 110 50 110 102 0 84 -80 139 -156 108z"/>
<path d="M3314 3246 c-40 -40 -45 -83 -15 -132 57 -93 201 -52 201 58 0 32 -7
47 -34 74 -28 28 -42 34 -76 34 -34 0 -48 -6 -76 -34z"/>
</g>
</svg>
